<?xml version="1.0" encoding="utf-8"?>
<!-- Generator: Adobe Illustrator 25.3.1, SVG Export Plug-In . SVG Version: 6.00 Build 0)  -->
<svg version="1.1" id="Layer_1" xmlns="http://www.w3.org/2000/svg" xmlns:xlink="http://www.w3.org/1999/xlink" x="0px" y="0px"
	 viewBox="0 0 800 800" style="enable-background:new 0 0 800 800;" xml:space="preserve">
<style type="text/css">
	.st0{fill-rule:evenodd;clip-rule:evenodd;fill:#222222;}
</style>
<path class="st0" d="M324.5,199.7c-52.7-34.9-128-27.4-171,28.1l-10.3,13.3c-49.6,63.9-42.4,155,16.5,210.4l231.8,217.7
	c4.2,4,6.5,6.1,8.3,7.5c0.1,0,0.1,0.1,0.2,0.1c0,0,0.1-0.1,0.1-0.1c1.8-1.4,4.1-3.5,8.3-7.5l231.8-217.7
	c58.9-55.4,66.1-146.5,16.5-210.4l-10.3-13.3c-45.3-58.4-126.5-63.6-179.3-22.1l-20.6-26.2c66.4-52.3,168.9-46.1,226.2,27.8
	l10.3,13.3c60.1,77.5,51.4,188-20,255.1L431.3,693.5l-0.5,0.4c-3.6,3.4-7.1,6.7-10.3,9.2c-3.6,2.8-8.2,5.6-14.1,6.8
	c-4.2,0.8-8.6,0.8-12.8,0c-5.9-1.2-10.5-4-14.1-6.8c-3.2-2.5-6.8-5.8-10.3-9.2l-0.5-0.4L136.9,475.7c-71.5-67.1-80.2-177.6-20-255.1
	l10.3-13.3c59-76,165.7-80.4,231.8-23.2l12,10.4l-9.9,12.5l-34.5,43.8c-11.2,14.3-18.6,23.6-22.9,31.1c-4.2,7.1-4.2,10.1-3.8,12
	c0.3,1.9,1.4,4.6,7.8,9.8c6.8,5.5,16.9,11.6,32.5,21l41.8,25l1,0.6c13.2,7.9,24.6,14.8,32.9,21.5c8.9,7.1,16.4,15.7,19.1,27.9
	c2.7,12.1-0.4,23.1-5.4,33.4c-4.7,9.6-12,20.6-20.6,33.5l-0.6,0.9l-27.9,41.8l-27.7-18.5l27.9-41.8c9.4-14.1,15.4-23.2,19-30.5
	c3.3-6.9,3.2-9.7,2.8-11.5c-0.4-1.8-1.5-4.4-7.5-9.2c-6.3-5.1-15.7-10.8-30.2-19.4l-41.7-25l-1-0.6c-14.3-8.6-26.5-15.9-35.3-23
	c-9.4-7.6-17.3-16.8-19.6-29.7c-2.4-13,1.7-24.3,7.8-34.8c5.7-9.8,14.5-21,24.8-34l0.7-0.9L324.5,199.7z"/>
</svg>
